<?xml version="1.0" encoding="UTF-8"?>
<svg viewBox="0 0 168.69321 236.61623" xmlns="http://www.w3.org/2000/svg" xmlns:xlink="http://www.w3.org/1999/xlink">
 <defs>
  <filter id="c">
   <feGaussianBlur stdDeviation="1.8976"/>
  </filter>
  <filter id="b">
   <feGaussianBlur stdDeviation="3.5595"/>
  </filter>
  <filter id="h">
   <feGaussianBlur stdDeviation="3.0194"/>
  </filter>
  <filter id="g">
   <feGaussianBlur stdDeviation="6.9348"/>
  </filter>
  <linearGradient id="a">
   <stop offset="0"/>
   <stop stop-opacity="0" offset="1"/>
  </linearGradient>
  <linearGradient id="f" x1="707.39" x2="357.13" y1="792.53" y2="534.98" gradientUnits="userSpaceOnUse">
   <stop stop-color="#fff" offset="0"/>
   <stop stop-color="#fff" stop-opacity="0" offset="1"/>
  </linearGradient>
  <linearGradient id="e" x1="672.73" x2="754.98" y1="345.56" y2="396.08" gradientUnits="userSpaceOnUse" xlink:href="#a"/>
  <linearGradient id="d" x1="878.03" x2="767.29" y1="373.41" y2="412.92" gradientUnits="userSpaceOnUse" xlink:href="#a"/>
 </defs>
 <g transform="matrix(.61225 0 0 .61225 -126.53 -132.54)">
  <path d="m236.05 273.76h216.76a12.739 12.739 0 0 1 12.739 12.739v287.06a12.739 12.739 0 0 1 -12.739 12.739h-216.76a12.739 12.739 0 0 1 -12.739 -12.739v-287.06a12.739 12.739 0 0 1 12.739 -12.739" fill-rule="evenodd" filter="url(#g)"/>
  <g transform="translate(-408.58 -119.89)" fill="#808080" fill-rule="evenodd">
   <path d="m754.98 343.61c-11.982 0-21.694 9.73-21.694 21.712 0 5.4829 2.0382 10.484 5.3926 14.304-27.998 23.182-67.625 19.257-67.877 37.165h168.37c-5e-3 -18.402-41.452-12.724-67.877-37.165 3.3529-3.8191 5.375-8.8223 5.375-14.304 0-11.982-9.7123-21.712-21.694-21.712z" opacity=".99"/>
   <path d="m754.98 343.61c-11.982 0-21.694 9.73-21.694 21.712 0 5.4829 2.0382 10.484 5.3926 14.304-27.998 23.182-67.625 19.257-67.877 37.165h168.37c-5e-3 -18.402-41.452-12.724-67.877-37.165 3.3529-3.8191 5.375-8.8223 5.375-14.304 0-11.982-9.7123-21.712-21.694-21.712z" opacity=".7"/>
   <path d="m754.98 343.61c-11.982 0-21.694 9.73-21.694 21.712 0 5.4829 2.0382 10.484 5.3926 14.304-27.998 23.182-67.625 19.257-67.877 37.165h168.37c-5e-3 -18.402-41.452-12.724-67.877-37.165 3.3529-3.8191 5.375-8.8223 5.375-14.304 0-11.982-9.7123-21.712-21.694-21.712z" opacity=".7"/>
   <path transform="matrix(.56579 0 0 .56579 351.23 190.33)" d="m727.99 311.2c0 7.9021-6.4059 14.308-14.308 14.308s-14.308-6.4059-14.308-14.308 6.406-14.308 14.308-14.308 14.308 6.4059 14.308 14.308z"/>
  </g>
  <g transform="matrix(.79262 0 0 .74197 70.371 68.29)">
   <path d="m205.7 268.85h277.68a17.403 17.403 0 0 1 17.403 17.403v392.15a17.403 17.403 0 0 1 -17.403 17.403h-277.68a17.403 17.403 0 0 1 -17.403 -17.403v-392.15a17.403 17.403 0 0 1 17.403 -17.403" fill="#2b1100" fill-rule="evenodd"/>
   <path d="m205.7 268.85h277.68a17.403 17.403 0 0 1 17.403 17.403v392.15a17.403 17.403 0 0 1 -17.403 17.403h-277.68a17.403 17.403 0 0 1 -17.403 -17.403v-392.15a17.403 17.403 0 0 1 17.403 -17.403" fill="url(#f)" fill-rule="evenodd" opacity=".5981"/>
   <path d="m206.04 269.42h271.28a17.17 17.17 0 0 1 17.17 17.17v386.89a17.17 17.17 0 0 1 -17.17 17.17h-271.28a17.17 17.17 0 0 1 -17.17 -17.17v-386.89a17.17 17.17 0 0 1 17.17 -17.17" fill="#803300" fill-rule="evenodd"/>
   <g transform="matrix(.8845 0 0 .73234 63.38 142.27)" fill-rule="evenodd" opacity=".1196">
    <path d="m396.1 451.88c16.414 81.364-20.397 225.06-62.41 146.96-12.973-24.113-61.935-78.747-62.41-146.96-0.54426-78.173 31.083-145.7 62.41-146.96 30.73-1.2408 45.472 63.008 62.41 146.96z" fill="#d45500"/>
    <path d="m385.25 458.53c12.935 64.118-16.073 177.35-49.182 115.81-10.223-19.002-48.807-62.056-49.182-115.81-0.4289-61.604 24.495-114.82 49.182-115.81 24.217-0.97777 35.834 49.653 49.182 115.81z" fill="#f60"/>
    <path d="m366.91 466.48c7.268 46.873-9.0315 129.65-27.635 84.665-5.7444-13.891-27.424-45.365-27.635-84.665-0.241-45.034 13.763-83.936 27.635-84.665 13.607-0.71479 20.135 36.298 27.635 84.665z" fill="#ff7f2a"/>
   </g>
   <path d="m450.33 462.19c24.263 89.604-30.15 247.85-92.252 161.85-19.176-26.555-91.55-86.723-92.252-161.85-0.80451-86.09 45.946-160.46 92.252-161.85 45.425-1.3664 67.216 69.389 92.252 161.85z" fill="none" filter="url(#c)" opacity=".8325" stroke="#520" stroke-width=".85131"/>
   <path transform="matrix(1.4169 0 0 1.1606 -156.99 -72.486)" d="m450.33 462.19c24.263 89.604-30.15 247.85-92.252 161.85-19.176-26.555-91.55-86.723-92.252-161.85-0.80451-86.09 45.946-160.46 92.252-161.85 45.425-1.3664 67.216 69.389 92.252 161.85z" fill="none" filter="url(#c)" opacity=".8904" stroke="#520" stroke-width=".85131"/>
   <path d="m206.04 269.65h271.28a17.17 17.17 0 0 1 17.17 17.17v386.89a17.17 17.17 0 0 1 -17.17 17.17h-271.28a17.17 17.17 0 0 1 -17.17 -17.17v-386.89a17.17 17.17 0 0 1 17.17 -17.17" fill="#fff" fill-rule="evenodd" opacity=".1005"/>
  </g>
  <g transform="translate(-569.19 32.722)">
   <path d="m819.6 255.28h183.61a6.4803 6.4803 0 0 1 6.4803 6.4803v265.07a6.4803 6.4803 0 0 1 -6.4803 6.4803h-183.61a6.4803 6.4803 0 0 1 -6.4803 -6.4803v-265.07a6.4803 6.4803 0 0 1 6.4803 -6.4803" fill-rule="evenodd" filter="url(#b)" stroke="#000" stroke-linecap="round" stroke-linejoin="round" stroke-width="1.0867"/>
   <g transform="translate(569.19 -32.402)">
    <path d="m250.41 287.68h183.61a6.4803 6.4803 0 0 1 6.4803 6.4803v265.07a6.4803 6.4803 0 0 1 -6.4803 6.4803h-183.61a6.4803 6.4803 0 0 1 -6.4803 -6.4803v-265.07a6.4803 6.4803 0 0 1 6.4803 -6.4803" fill="#fff" fill-rule="evenodd" stroke="#999" stroke-linecap="round" stroke-linejoin="round" stroke-width="1.0867"/>
    <path d="m265.69 297.43v264.53" fill="none" stroke="#800000" stroke-width="1.0648"/>
    <path d="m438.59 315.77h-193.5" fill="none" stroke="#800000" stroke-width=".98092"/>
    <path d="m430.03 336.99h-160.18" fill="none" stroke="#000080" stroke-width=".32546"/>
    <path d="m430.03 352.27h-160.18" fill="none" stroke="#000080" stroke-width=".32546"/>
    <path d="m430.03 367.56h-160.18" fill="none" stroke="#000080" stroke-width=".32546"/>
    <path d="m430.03 382.84h-160.18" fill="none" stroke="#000080" stroke-width=".32546"/>
    <path d="m430.03 398.13h-160.18" fill="none" stroke="#000080" stroke-width=".32546"/>
    <path d="m430.03 413.42h-160.18" fill="none" stroke="#000080" stroke-width=".32546"/>
    <path d="m430.03 428.7h-160.18" fill="none" stroke="#000080" stroke-width=".32546"/>
    <path d="m430.03 443.99h-160.18" fill="none" stroke="#000080" stroke-width=".32546"/>
    <path d="m430.03 459.27h-160.18" fill="none" stroke="#000080" stroke-width=".32546"/>
    <path d="m430.03 474.56h-160.18" fill="none" stroke="#000080" stroke-width=".32546"/>
    <path d="m430.03 489.84h-160.18" fill="none" stroke="#000080" stroke-width=".32546"/>
    <path d="m430.03 505.13h-160.18" fill="none" stroke="#000080" stroke-width=".32546"/>
    <path d="m430.03 520.42h-160.18" fill="none" stroke="#000080" stroke-width=".32546"/>
    <path d="m430.03 535.7h-160.18" fill="none" stroke="#000080" stroke-width=".32546"/>
    <path d="m430.03 550.99h-160.18" fill="none" stroke="#000080" stroke-width=".32546"/>
   </g>
  </g>
  <path d="m343.48 223.73c-11.982 0-21.694 9.73-21.694 21.712 0 5.4829 2.0382 10.484 5.3926 14.304-27.998 23.182-67.625 19.257-67.877 37.165h168.37c-5e-3 -18.402-41.452-12.724-67.877-37.165 3.3529-3.8191 5.375-8.8223 5.375-14.304 0-11.982-9.7123-21.712-21.694-21.712z" fill="#1a1a1a" fill-rule="evenodd" filter="url(#h)" opacity=".7"/>
  <g transform="translate(-565.19 34.722)">
   <path d="m819.6 255.28h183.61a6.4803 6.4803 0 0 1 6.4803 6.4803v265.07a6.4803 6.4803 0 0 1 -6.4803 6.4803h-183.61a6.4803 6.4803 0 0 1 -6.4803 -6.4803v-265.07a6.4803 6.4803 0 0 1 6.4803 -6.4803" fill-rule="evenodd" filter="url(#b)" stroke="#000" stroke-linecap="round" stroke-linejoin="round" stroke-width="1.0867"/>
   <g transform="translate(569.19 -32.402)">
    <path d="m250.41 287.68h183.61a6.4803 6.4803 0 0 1 6.4803 6.4803v265.07a6.4803 6.4803 0 0 1 -6.4803 6.4803h-183.61a6.4803 6.4803 0 0 1 -6.4803 -6.4803v-265.07a6.4803 6.4803 0 0 1 6.4803 -6.4803" fill="#fff" fill-rule="evenodd" stroke="#999" stroke-linecap="round" stroke-linejoin="round" stroke-width="1.0867"/>
    <path d="m265.69 297.43v264.53" fill="none" stroke="#800000" stroke-width="1.0648"/>
    <path d="m438.59 315.77h-193.5" fill="none" stroke="#800000" stroke-width=".98092"/>
    <path d="m430.03 336.99h-160.18" fill="none" stroke="#000080" stroke-width=".32546"/>
    <path d="m430.03 352.27h-160.18" fill="none" stroke="#000080" stroke-width=".32546"/>
    <path d="m430.03 367.56h-160.18" fill="none" stroke="#000080" stroke-width=".32546"/>
    <path d="m430.03 382.84h-160.18" fill="none" stroke="#000080" stroke-width=".32546"/>
    <path d="m430.03 398.13h-160.18" fill="none" stroke="#000080" stroke-width=".32546"/>
    <path d="m430.03 413.42h-160.18" fill="none" stroke="#000080" stroke-width=".32546"/>
    <path d="m430.03 428.7h-160.18" fill="none" stroke="#000080" stroke-width=".32546"/>
    <path d="m430.03 443.99h-160.18" fill="none" stroke="#000080" stroke-width=".32546"/>
    <path d="m430.03 459.27h-160.18" fill="none" stroke="#000080" stroke-width=".32546"/>
    <path d="m430.03 474.56h-160.18" fill="none" stroke="#000080" stroke-width=".32546"/>
    <path d="m430.03 489.84h-160.18" fill="none" stroke="#000080" stroke-width=".32546"/>
    <path d="m430.03 505.13h-160.18" fill="none" stroke="#000080" stroke-width=".32546"/>
    <path d="m430.03 520.42h-160.18" fill="none" stroke="#000080" stroke-width=".32546"/>
    <path d="m430.03 535.7h-160.18" fill="none" stroke="#000080" stroke-width=".32546"/>
    <path d="m430.03 550.99h-160.18" fill="none" stroke="#000080" stroke-width=".32546"/>
   </g>
  </g>
  <g transform="translate(-412.58 -119.89)" fill-rule="evenodd">
   <path d="m754.98 343.61c-11.982 0-21.694 9.73-21.694 21.712 0 5.4829 2.0382 10.484 5.3926 14.304-27.998 23.182-67.625 19.257-67.877 37.165h168.37c-5e-3 -18.402-41.452-12.724-67.877-37.165 3.3529-3.8191 5.375-8.8223 5.375-14.304 0-11.982-9.7123-21.712-21.694-21.712z" fill="#ccc" opacity=".99"/>
   <path d="m754.98 343.61c-11.982 0-21.694 9.73-21.694 21.712 0 5.4829 2.0382 10.484 5.3926 14.304-27.998 23.182-67.625 19.257-67.877 37.165h168.37c-5e-3 -18.402-41.452-12.724-67.877-37.165 3.3529-3.8191 5.375-8.8223 5.375-14.304 0-11.982-9.7123-21.712-21.694-21.712z" fill="url(#e)" opacity=".7"/>
   <path d="m754.98 343.61c-11.982 0-21.694 9.73-21.694 21.712 0 5.4829 2.0382 10.484 5.3926 14.304-27.998 23.182-67.625 19.257-67.877 37.165h168.37c-5e-3 -18.402-41.452-12.724-67.877-37.165 3.3529-3.8191 5.375-8.8223 5.375-14.304 0-11.982-9.7123-21.712-21.694-21.712z" fill="url(#d)" opacity=".7"/>
   <path transform="matrix(.56579 0 0 .56579 351.23 190.33)" d="m727.99 311.2c0 7.9021-6.4059 14.308-14.308 14.308s-14.308-6.4059-14.308-14.308 6.406-14.308 14.308-14.308 14.308 6.4059 14.308 14.308z" fill="#fff"/>
  </g>
 </g>
</svg>
