<?xml version="1.0" encoding="UTF-8"?>
<svg width="960" height="576" version="1.1" viewBox="0 0 960.00004 576" xmlns="http://www.w3.org/2000/svg" xmlns:xlink="http://www.w3.org/1999/xlink">
 <defs>
  <linearGradient id="o">
   <stop stop-opacity="0" offset="0"/>
   <stop offset="1"/>
  </linearGradient>
  <linearGradient id="n">
   <stop stop-opacity="0" offset="0"/>
   <stop stop-opacity="0" offset=".5"/>
   <stop offset="1"/>
  </linearGradient>
  <radialGradient id="w" cx="1070" cy="700" r="40" gradientTransform="matrix(-1 0 0 1 -170 -99.999)" gradientUnits="userSpaceOnUse" xlink:href="#n"/>
  <linearGradient id="r" x1="780" x2="800" y1="373.33" y2="373.33" gradientTransform="matrix(1 0 0 .88235 -2e3 70.589)" gradientUnits="userSpaceOnUse" xlink:href="#o"/>
  <linearGradient id="s" x1="410" x2="410" y1="620" y2="640" gradientTransform="translate(-2e3)" gradientUnits="userSpaceOnUse" xlink:href="#o"/>
  <radialGradient id="x" cx="1070" cy="700" r="40" gradientTransform="translate(-3030 -99.999)" gradientUnits="userSpaceOnUse" xlink:href="#n"/>
  <linearGradient id="t" x1="780" x2="800" y1="373.33" y2="373.33" gradientTransform="matrix(1 0 0 .88235 1200 70.589)" gradientUnits="userSpaceOnUse" xlink:href="#o"/>
  <linearGradient id="u" x1="410" x2="410" y1="620" y2="640" gradientTransform="translate(-2e3 -800)" gradientUnits="userSpaceOnUse" xlink:href="#o"/>
  <radialGradient id="y" cx="1070" cy="700" r="40" gradientTransform="matrix(-1 0 0 -1 -170 900)" gradientUnits="userSpaceOnUse" xlink:href="#n"/>
  <radialGradient id="z" cx="1070" cy="700" r="40" gradientTransform="matrix(1 0 0 -1 -3030 900)" gradientUnits="userSpaceOnUse" xlink:href="#n"/>
  <linearGradient id="v" x1="2050" x2="2560" y1="-120" y2="-630" gradientTransform="matrix(1 0 0 .89796 -4e3 -63.265)" gradientUnits="userSpaceOnUse">
   <stop stop-color="#fff" offset="0"/>
   <stop stop-color="#fff" stop-opacity="0" offset="1"/>
  </linearGradient>
  <filter id="q" color-interpolation-filters="sRGB">
   <feGaussianBlur result="blur" stdDeviation="2 2"/>
  </filter>
  <clipPath id="p">
   <rect transform="scale(1,-1)" y="-3" width="5" height="3" ry=".25" fill="#d70000"/>
  </clipPath>
 </defs>
 <g transform="translate(80 -113)">
  <rect transform="matrix(1 0 0 -1 1e3 0)" x="-1e3" y="-641" width="800" height="480" ry="40" filter="url(#q)"/>
  <g transform="matrix(160 0 0 160 0 160)" clip-path="url(#p)">
   <rect width="5" height="3"/>
   <rect y="1" width="5" height="2" fill="#d00"/>
   <rect y="2" width="5" height="1" fill="#ffce00"/>
  </g>
  <g transform="translate(2e3)">
   <path d="m-1200 600a40 40 0 0 1 -40 40v-20a20 20 0 0 0 20 -20h20z" fill="url(#w)" opacity=".603"/>
   <rect x="-1220" y="200" width="20" height="400" ry="0" fill="url(#r)" opacity=".603"/>
   <rect x="-1960" y="620" width="720" height="20" fill="url(#s)" opacity=".603"/>
   <path d="m-2e3 600a40 40 0 0 0 40 40v-20a20 20 0 0 1 -20 -20h-20z" fill="url(#x)" opacity=".603"/>
   <rect transform="scale(-1,1)" x="1980" y="200" width="20" height="400" ry="0" fill="url(#t)" opacity=".603"/>
   <rect transform="scale(1,-1)" x="-1960" y="-180" width="720" height="20" fill="url(#u)" opacity=".603"/>
   <path d="m-1200 200a40 40 0 0 0 -40 -40v20a20 20 0 0 1 20 20h20z" fill="url(#y)" opacity=".603"/>
   <path d="m-2e3 200a40 40 0 0 1 40 -40v20a20 20 0 0 0 -20 20h-20z" fill="url(#z)" opacity=".603"/>
   <rect transform="scale(1,-1)" x="-1980" y="-620" width="760" height="440" ry="20" fill="url(#v)" opacity=".3"/>
  </g>
 </g>
</svg>
