<?xml version="1.0" encoding="UTF-8"?>
<svg viewBox="0 0 286.91379 286.91379" xmlns="http://www.w3.org/2000/svg">
 <path transform="matrix(.83895 0 0 1.0414 -119.55 -375.73)" d="m484.49 498.52c0 76.076-76.558 137.75-171 137.75s-171-61.672-171-137.75 76.558-137.75 171-137.75 171 61.672 171 137.75z" fill="#808080"/>
 <g transform="translate(-168.49 -348.19)" fill="none" stroke="#fff">
  <path transform="matrix(.94025 0 0 .92745 12.409 42.957)" d="m422.86 483.79c0 56.806-46.69 102.86-104.29 102.86s-104.29-46.051-104.29-102.86 46.69-102.86 104.29-102.86 104.29 46.051 104.29 102.86z" stroke-linecap="round" stroke-width="14.992"/>
  <path d="m230 442.36h168" stroke-width="14"/>
  <path d="m228 538.86h172" stroke-width="14"/>
  <path d="m218 491.36h188" stroke-width="14"/>
  <path d="m310.25 583.11v-184" stroke-width="14"/>
  <path d="m310.25 583.11c-60.25-20.75-70.25-150.75 0-184" stroke-width="14"/>
  <path d="m310.25 583.11c69.75-30.75 69.75-150.75 0-184" stroke-width="14"/>
 </g>
</svg>
